<?xml version="1.0" standalone="no"?><!DOCTYPE svg PUBLIC "-//W3C//DTD SVG 1.1//EN" "http://www.w3.org/Graphics/SVG/1.1/DTD/svg11.dtd"><svg t="1772179213617" class="icon" viewBox="0 0 1024 1024" version="1.1" xmlns="http://www.w3.org/2000/svg" p-id="5410" xmlns:xlink="http://www.w3.org/1999/xlink" width="200" height="200"><path d="M482.686773 74.100958c10.109137-5.627093 19.662109-12.49738 30.785431-15.997955 8.50607-2.191949 16.684984 2.322812 23.882429 6.379553 117.252907 68.081278 235.061981 135.311949 352.118594 203.753099-40.338403 22.115783-79.66262 46.063642-119.804729 68.506581-27.677444 15.147348-62.814058 13.740575-89.771757-2.388242-48.288307-28.135463-96.871054-55.780192-145.126645-84.013802-8.996805-5.692524-21.23246-5.888818-30.654569-1.21048-49.727796 28.724345-99.455591 57.579553-149.281533 86.173036-27.055847 15.834377-61.96345 15.867093-89.313738 0.687028a26252.906326 26252.906326 0 0 1-113.785048-65.627603c-0.22901-1.177764-0.719744-3.533291-0.948754-4.74377 110.775208-63.533802 221.255974-127.721917 331.900319-191.517445z" fill="#72AF2D" p-id="5411"></path><path d="M115.551693 719.744409c0.490735-135.148371-0.621597-270.329457 0.556166-405.477828 32.617508 19.367668 65.594888 38.081022 98.441406 57.088818 12.759105 7.426454 26.270671 14.198594 36.739681 24.863898 15.768946 16.390543 26.041661 38.669904 25.845367 61.636294 0.032716 54.569712 0.130863 109.172141-0.065431 163.774569-1.046901 12.202939 3.304281 25.649073 14.493035 31.963195 40.567412 23.71885 81.39655 47.045112 122.094824 70.600383 14.362173 8.636933 29.771246 15.899808 42.399489 27.055847 18.157188 17.110288 28.757061 41.777891 29.116933 66.70722-0.032716 44.558722-0.196294 89.15016 0.065431 133.708882-10.174569-3.467859-18.876933-9.847412-28.200894-14.98377-108.550543-62.715911-217.166518-125.36639-325.65163-188.147732-10.207284-5.659808-17.143003-16.946709-15.834377-28.789776z" fill="#118CCF" p-id="5412"></path><path d="M815.143259 367.396805c30.752716-17.47016 61.014696-35.823642 92.094568-52.70492 0.196294 135.017508-0.065431 270.035016 0.130863 405.052524 0.817891 11.581342-5.299936 23.162684-15.638083 28.626198-110.415335 63.860958-220.896102 127.558339-331.311438 191.386581-7.328307 4.449329-14.722045 8.800511-22.50837 12.431949-0.098147-44.820447 0.065431-89.640895-0.098147-134.428626-0.425304-31.537891 17.47016-62.159744 44.558722-78.059553 49.073482-28.429904 98.245112-56.663514 147.285878-85.158849 8.244345-4.51476 15.310927-13.053546 14.918339-22.900959 0.130863-55.682045 0.065431-111.396805 0-167.07885-0.032716-23.784281 8.048051-47.732141 24.209585-65.398594 12.49738-14.362173 30.360128-22.083067 46.358083-31.766901z" fill="#DA4525" p-id="5413"></path></svg>