<?xml version="1.0" standalone="no"?><!DOCTYPE svg PUBLIC "-//W3C//DTD SVG 1.1//EN" "http://www.w3.org/Graphics/SVG/1.1/DTD/svg11.dtd"><svg t="1781361220777" class="icon" viewBox="0 0 1024 1024" version="1.1" xmlns="http://www.w3.org/2000/svg" p-id="5056" xmlns:xlink="http://www.w3.org/1999/xlink" width="200" height="200"><path d="M567.7 509.8l253.2-253.2c12.3-12.3 12.3-32.1 0-44.4a31.325 31.325 0 0 0-44.4 0L523.3 465.4 270.1 212.2a31.325 31.325 0 0 0-44.4 0 31.325 31.325 0 0 0 0 44.4l253.2 253.2L225.7 763a31.325 31.325 0 0 0 0 44.4c6.1 6.1 14.2 9.2 22.2 9.2s16.1-3.1 22.2-9.2l253.2-253.2 253.2 253.2c6.1 6.1 14.2 9.2 22.2 9.2s16.1-3.1 22.2-9.2c12.3-12.3 12.3-32.1 0-44.4L567.7 509.8z" fill="#ffffff" p-id="5057"></path></svg>