<?xml version="1.0" standalone="no"?><!DOCTYPE svg PUBLIC "-//W3C//DTD SVG 1.1//EN" "http://www.w3.org/Graphics/SVG/1.1/DTD/svg11.dtd"><svg t="1781361305491" class="icon" viewBox="0 0 1024 1024" version="1.1" xmlns="http://www.w3.org/2000/svg" p-id="5302" xmlns:xlink="http://www.w3.org/1999/xlink" width="200" height="200"><path d="M789.333333 853.333333a21.333333 21.333333 0 0 1-21.333333 21.333334H256a21.333333 21.333333 0 0 1-21.333333-21.333334V170.666667a21.333333 21.333333 0 0 1 21.333333-21.333334h256V341.333333a85.333333 85.333333 0 0 0 85.333333 85.333334h192v426.666666z m-213.333333-656.170666L741.461333 362.666667H597.333333a21.333333 21.333333 0 0 1-21.333333-21.333334V197.162667z m252.330667 161.834666l-248.704-248.661333c-1.109333-1.109333-2.474667-1.962667-3.626667-2.986667a88.405333 88.405333 0 0 0-9.344-7.68c-1.706667-1.152-3.669333-1.92-5.461333-2.901333-3.029333-1.706667-6.016-3.584-9.216-4.949333a84.352 84.352 0 0 0-26.624-5.888C523.349333 85.802667 521.386667 85.333333 519.338667 85.333333H256a85.333333 85.333333 0 0 0-85.333333 85.333334v682.666666a85.333333 85.333333 0 0 0 85.333333 85.333334h512a85.333333 85.333333 0 0 0 85.333333-85.333334V419.328a85.333333 85.333333 0 0 0-25.002666-60.330667z" fill="#ffffff" p-id="5303"></path></svg>