<?xml version="1.0" standalone="no"?><!DOCTYPE svg PUBLIC "-//W3C//DTD SVG 1.1//EN" "http://www.w3.org/Graphics/SVG/1.1/DTD/svg11.dtd"><svg t="1781361326521" class="icon" viewBox="0 0 1024 1024" version="1.1" xmlns="http://www.w3.org/2000/svg" p-id="6349" xmlns:xlink="http://www.w3.org/1999/xlink" width="200" height="200"><path d="M920.2 831.8H103.8c-22.1 0-40 17.9-40 40s17.9 40 40 40h816.5c22.1 0 40-17.9 40-40s-18-40-40.1-40zM788.1 340.2c15.7-16.1 23.9-37.9 23-61.4-1-28.1-14.7-56.1-37.7-76.7L703.9 140c-17.8-15.9-40.1-25.7-62.8-27.5-25.7-2-49.9 6.6-66.5 23.6L135.7 587l-34.4 243.2 252.4-43.7 434.4-446.3zM631.4 192.4c2.7-0.8 11.3 0.1 19.1 7.1l69.5 62.2c7.9 7.1 11 15.1 11.1 19.8 0.1 1.8-0.3 2.7-0.4 2.9l-57.3 58.9-101-90.3 59-60.6zM195.8 732.6l15.4-108.5 305.4-313.7 101 90.3-303.1 311.4-118.7 20.5z" p-id="6350" fill="#ffffff"></path></svg>