<?xml version="1.0" standalone="no"?><!DOCTYPE svg PUBLIC "-//W3C//DTD SVG 1.1//EN" "http://www.w3.org/Graphics/SVG/1.1/DTD/svg11.dtd"><svg t="1772164900257" class="icon" viewBox="0 0 1024 1024" version="1.1" xmlns="http://www.w3.org/2000/svg" p-id="15677" xmlns:xlink="http://www.w3.org/1999/xlink" width="200" height="200"><path d="M0 0m512 0l0 0q512 0 512 512l0 0q0 512-512 512l0 0q-512 0-512-512l0 0q0-512 512-512Z" fill="#F55036" p-id="15678"></path><path d="M518.229333 256a175.317333 175.317333 0 0 0-3.2 350.592H576V541.013333h-57.728a109.525333 109.525333 0 0 1-110.805333-108.373333 109.525333 109.525333 0 0 1 108.373333-110.805333h2.432a109.866667 109.866667 0 0 1 109.824 109.568v161.450666a110.165333 110.165333 0 0 1-108.842667 109.568 107.093333 107.093333 0 0 1-76.16-32.213333l-46.421333 46.464A173.994667 173.994667 0 0 0 518.229333 768h2.474667a175.445333 175.445333 0 0 0 172.928-174.421333v-166.570667A175.36 175.36 0 0 0 518.485333 256h-0.256z" fill="#FFFFFF" p-id="15679"></path></svg>