<?xml version="1.0" standalone="no"?><!DOCTYPE svg PUBLIC "-//W3C//DTD SVG 1.1//EN" "http://www.w3.org/Graphics/SVG/1.1/DTD/svg11.dtd"><svg t="1778676996028" class="icon" viewBox="0 0 1040 1024" version="1.1" xmlns="http://www.w3.org/2000/svg" p-id="6264" xmlns:xlink="http://www.w3.org/1999/xlink" width="203.125" height="200"><path d="M491.488 435.2c-98.848-49.568-135.04-115.344-111.12-195.856 21.056-70.96 92.032-117.392 164.32-106.48 36.048 5.44 67.76 20.208 92.48 48.368 37.392 42.672 45.84 92.48 34.416 147.936l34.16 9.264 51.216 13.888c36.368-99.744-6.288-216.288-99.424-276.128-96.976-62.288-222.624-49.136-304.992 32-42.992 42.384-66.528 94.08-72 153.92-7.728 84.64 27.248 152.928 86 211.36l-93.44 156.688c-3.04 0.224-5.68 0.384-8.032 0.528-4.304 0.256-7.68 0.464-11.008 0.928-61.424 8.704-104.64 63.328-94.32 119.04 11.68 62.928 68.944 101.568 127.728 86.16 62.336-16.32 95.52-76.48 72-138.304-8.512-22.368-3.248-36.704 7.408-54.304 30.032-49.616 59.632-99.504 89.76-150.304l34.848-58.704z m211.568 74.976l-90.352-159.36c1.488-3.728 2.944-7.264 4.352-10.64v-0.016c2.96-7.168 5.664-13.728 7.92-20.432 11.952-35.36 4.736-67.648-17.952-96.32-27.776-35.104-76.224-47.856-117.52-32.064-41.68 15.952-68.352 56.864-66.528 102.128 1.84 45.76 32.544 86.624 80.128 94.864 28.48 4.928 42.432 18.464 55.072 41.76 26.88 49.6 54.72 98.64 82.592 147.728v0.016c11.008 19.392 22.016 38.784 32.976 58.24 93.312-62.208 170.512-60.224 228.16 4.56 49.92 56.16 50.976 141.664 2.448 199.008-56.912 67.216-133.568 69.888-221.216 13.12l-69.632 58.272c88.736 88.576 215.408 100.352 315.568 31.408 97.584-67.184 131.552-196.128 81.856-305.008-41.12-90.128-155.792-174.32-307.872-127.264z m-201.968 271.84H684.16c2.56 3.424 4.944 6.784 7.28 10.08 4.848 6.848 9.472 13.344 14.848 19.12 38.784 41.472 104.256 43.52 145.696 5.04 42.96-39.872 44.912-106.88 4.32-148.496-39.728-40.752-107.6-44.64-144.48-1.504-22.4 26.224-45.36 29.296-75.104 28.832-54.352-0.832-108.72-0.672-163.088-0.512-21.808 0.064-43.616 0.128-65.408 0.128 4.944 107.12-35.552 173.872-115.872 189.728-78.656 15.52-151.088-24.608-176.592-97.824-28.96-83.2 6.848-149.744 110.352-202.56l-23.44-85.04C89.872 523.584 5.232 633.04 13.952 756.16c7.728 108.688 95.408 205.232 202.64 222.512 58.24 9.408 112.96-0.352 163.728-29.152 65.312-37.056 103.216-95.328 120.768-167.52z" fill="#ffffff" p-id="6265"></path></svg>