<?xml version="1.0" standalone="no"?><!DOCTYPE svg PUBLIC "-//W3C//DTD SVG 1.1//EN" "http://www.w3.org/Graphics/SVG/1.1/DTD/svg11.dtd"><svg t="1771129577454" class="icon" viewBox="0 0 1024 1024" version="1.1" xmlns="http://www.w3.org/2000/svg" p-id="5111" xmlns:xlink="http://www.w3.org/1999/xlink" width="200" height="200"><path d="M885.034667 738.730667c-80.426667 131.669333-219.392 212.138667-372.992 212.138666-153.6 0-292.565333-80.469333-373.034667-204.8h95.061333c36.565333 51.2 95.104 87.765333 153.6 109.738667l7.338667-7.338667c-7.338667-29.269333-21.930667-65.834667-29.269333-102.4h73.130666c21.930667 73.130667 51.2 131.626667 73.173334 131.626667 21.930667 0 51.2-58.538667 73.130666-131.669333h73.173334c-7.338667 36.608-14.677333 73.173333-29.312 102.4l7.338666 7.381333c58.538667-21.973333 117.034667-65.834667 160.896-117.077333h87.765334zM584.021333 371.370667c14.037333 0 28.16 1.365333 42.496 4.138666 14.293333 2.730667 26.069333 6.272 35.370667 10.538667v46.634667c-25.344-9.301333-48.896-13.952-70.741333-13.952-26.026667 0-47.274667 7.68-63.573334 22.954666-16.042667 15.36-24.064 38.528-24.064 69.589334 0 16.554667 4.010667 31.274667 12.032 44.074666 8.021333 12.501333 18.56 22.314667 31.573334 29.312a102.4 102.4 0 0 0 42.197333 12.032l8.234667 0.426667c11.52 0 22.954667-1.706667 34.261333-4.949333 11.264-3.242667 21.290667-7.68 30.08-13.184v51.925333c-10.794667 5.034667-22.357333 8.533333-34.645333 10.538667-12.032 2.005333-25.813333 2.986667-41.386667 2.986666-28.586667 0-54.058667-5.248-76.373333-15.786666a123.989333 123.989333 0 0 1-52.266667-45.866667c-12.544-20.053333-18.773333-43.904-18.773333-71.509333 0-29.056 6.101333-54.058667 18.389333-74.88 12.288-21.034667 29.482667-37.077333 51.541333-48.085334 22.058667-11.306667 47.274667-16.938667 75.648-16.938666zM232.192 564.693333l0.768 3.84 0.768-3.84 35.712-188.458666h107.946667v263.338666h-59.733334V422.912h-3.072L269.44 639.573333h-72.96l-44.8-216.661333h-3.328v216.661333H88.490667V376.234667h107.946666l35.754667 188.458666zM852.693333 376.234667c27.605333 0 49.28 7.424 65.109334 22.186666 16.042667 14.848 24.021333 35.925333 24.021333 63.232 0 27.093333-7.978667 48-24.021333 62.805334-15.786667 14.805333-37.546667 22.186667-65.109334 22.186666h-63.957333v92.928h-62.08V376.234667h126.037333z m-63.957333 120.746666h58.282667c12.544 0 22.186667-3.413333 29.013333-10.154666a34.176 34.176 0 0 0 10.154667-25.173334c0-10.24-3.413333-18.773333-10.197334-25.6-6.784-6.741333-16.426667-10.154667-28.928-10.154666h-58.325333v71.082666zM512.042667 73.130667c153.6 0 292.565333 80.469333 372.992 204.8h-95.061334c-36.608-51.2-95.104-87.722667-153.6-109.653334l-7.338666 7.253334c7.338667 29.269333 21.973333 65.834667 29.312 102.4h-73.173334C563.2 204.885333 533.973333 146.346667 512 146.346667s-51.2 58.496-73.173333 131.669333H365.738667c7.338667-36.608 14.634667-65.877333 29.269333-102.4l-7.338667-7.338667c-58.496 21.973333-116.992 65.834667-160.853333 117.034667H138.965333C219.477333 153.6 358.4 73.130667 512 73.130667z" p-id="5112" fill="#ffffff"></path></svg>