<?xml version="1.0" standalone="no"?><!DOCTYPE svg PUBLIC "-//W3C//DTD SVG 1.1//EN" "http://www.w3.org/Graphics/SVG/1.1/DTD/svg11.dtd"><svg t="1779595463204" class="icon" viewBox="0 0 1024 1024" version="1.1" xmlns="http://www.w3.org/2000/svg" p-id="13580" xmlns:xlink="http://www.w3.org/1999/xlink" width="200" height="200"><path d="M883.626667 155.946667s82.858667-32.341333 75.946666 46.165333c-2.261333 32.298667-22.997333 145.408-39.125333 267.776l-55.253333 362.453333s-4.608 53.077333-46.08 62.293334c-41.386667 9.258667-103.552-32.298667-115.072-41.514667-9.216-6.912-172.672-110.805333-230.272-161.621333-16.085333-13.824-34.517333-41.557333 2.346666-73.856l241.749334-230.826667c27.605333-27.733333 55.253333-92.373333-59.861334-13.866667l-322.346666 219.306667s-36.864 23.04-105.898667 2.304l-149.674667-46.165333s-55.253333-34.645333 39.125334-69.248C349.482667 370.56 632.661333 259.84 883.626667 155.904z" fill="#1EAFE9" p-id="13581"></path></svg>