<?xml version="1.0" standalone="no"?><!DOCTYPE svg PUBLIC "-//W3C//DTD SVG 1.1//EN" "http://www.w3.org/Graphics/SVG/1.1/DTD/svg11.dtd"><svg t="1779705597273" class="icon" viewBox="0 0 1024 1024" version="1.1" xmlns="http://www.w3.org/2000/svg" p-id="7316" xmlns:xlink="http://www.w3.org/1999/xlink" width="200" height="200"><path d="M1004.034867 265.216L834.562867 95.744a67.2768 67.2768 0 0 0-48.64-19.968h-41.984a67.1744 67.1744 0 0 0-56.832 31.744c-35.328 52.224-100.864 85.504-176.128 85.504S369.154867 157.696 333.826867 107.52a60.416 60.416 0 0 0-53.76-31.744h-36.864c-23.552 0-40.448 6.656-52.224 19.968L19.970867 265.216a65.536 65.536 0 0 0 0 94.208l98.816 98.816a64.0512 64.0512 0 0 0 43.52 18.432 63.0784 63.0784 0 0 0 43.52-18.432h1.536c1.536 0 1.536 0 1.536 1.536V814.08A134.6048 134.6048 0 0 0 343.042867 948.224h335.872a134.6048 134.6048 0 0 0 134.144-134.144V459.776c0-1.536 0-1.536 1.536-1.536h1.536a64.0512 64.0512 0 0 0 43.52 18.432 60.416 60.416 0 0 0 43.52-18.432l98.816-98.816c28.672-27.136 28.672-69.12 2.048-94.208z m-142.848 142.848a66.56 66.56 0 0 0-45.568-16.896 67.9424 67.9424 0 0 0-68.608 68.608V814.08a67.2768 67.2768 0 0 1-67.072 67.072H344.066867A67.2768 67.2768 0 0 1 276.994867 814.08V459.776a67.9424 67.9424 0 0 0-68.608-68.608 71.2704 71.2704 0 0 0-45.568 16.896L67.074867 312.32l169.472-169.472h41.984l1.536 1.536C327.170867 215.04 416.258867 260.096 512.002867 260.096s184.832-43.52 231.424-115.712a1.4848 1.4848 0 0 1 1.536-1.536h40.448L956.930867 312.32z" fill="#ffffff" p-id="7317"></path></svg>