<?xml version="1.0" standalone="no"?><!DOCTYPE svg PUBLIC "-//W3C//DTD SVG 1.1//EN" "http://www.w3.org/Graphics/SVG/1.1/DTD/svg11.dtd"><svg t="1779198415670" class="icon" viewBox="0 0 1024 1024" version="1.1" xmlns="http://www.w3.org/2000/svg" p-id="5928" xmlns:xlink="http://www.w3.org/1999/xlink" width="200" height="200"><path d="M106.666667 469.333333c0-100.266667 46.933333-187.733333 117.333333-247.466666 10.666667-8.533333 12.8-23.466667 8.533333-36.266667-8.533333-19.2-32-25.6-49.066666-12.8C98.133333 243.2 42.666667 349.866667 42.666667 469.333333c0 117.333333 51.2 219.733333 134.4 290.133334 14.933333 12.8 40.533333 8.533333 49.066666-12.8 6.4-12.8 2.133333-27.733333-8.533333-36.266667C149.333333 652.8 106.666667 565.333333 106.666667 469.333333z" p-id="5929" fill="#ffffff"></path><path d="M213.333333 469.333333c0-57.6 21.333333-108.8 57.6-147.2 8.533333-8.533333 10.666667-23.466667 6.4-34.133333-8.533333-21.333333-36.266667-25.6-51.2-8.533333C179.2 328.533333 149.333333 394.666667 149.333333 469.333333c0 70.4 25.6 134.4 68.266667 183.466667 14.933333 17.066667 42.666667 12.8 53.333333-8.533333 4.266667-10.666667 2.133333-23.466667-4.266666-32-34.133333-40.533333-53.333333-89.6-53.333334-142.933334zM640 454.4c19.2-12.8 38.4-23.466667 59.733333-32-8.533333-55.466667-34.133333-104.533333-72.533333-142.933333-14.933333-17.066667-42.666667-10.666667-51.2 8.533333-4.266667 10.666667-2.133333 25.6 6.4 34.133333 32 36.266667 53.333333 81.066667 57.6 132.266667zM740.266667 409.6c14.933333-2.133333 32-4.266667 49.066666-4.266667h17.066667c-14.933333-93.866667-66.133333-177.066667-136.533333-234.666666-17.066667-12.8-40.533333-6.4-49.066667 12.8-6.4 12.8-2.133333 27.733333 8.533333 36.266666 57.6 49.066667 98.133333 115.2 110.933334 189.866667zM584.533333 403.2c-10.666667-25.6-46.933333-25.6-57.6 0v2.133333c-4.266667 8.533333-4.266667 17.066667 0 23.466667 6.4 12.8 8.533333 25.6 8.533334 40.533333 0 10.666667-2.133333 21.333333-4.266667 32-2.133333 6.4-2.133333 14.933333 2.133333 21.333334 6.4 14.933333 19.2 19.2 32 19.2 8.533333-17.066667 19.2-34.133333 32-46.933334V469.333333c0-23.466667-4.266667-44.8-12.8-66.133333z" p-id="5930" fill="#ffffff"></path><path d="M324.266667 522.666667c2.133333-6.4 4.266667-14.933333 2.133333-21.333334-4.266667-10.666667-6.4-21.333333-6.4-32 0-14.933333 2.133333-27.733333 8.533333-40.533333 4.266667-8.533333 2.133333-17.066667 0-23.466667v-2.133333c-10.666667-25.6-46.933333-25.6-57.6 0-8.533333 19.2-12.8 42.666667-12.8 66.133333 0 17.066667 2.133333 34.133333 8.533334 51.2 6.4 27.733333 44.8 29.866667 57.6 2.133334zM462.933333 522.666667c17.066667-12.8 27.733333-32 27.733334-53.333334 0-36.266667-27.733333-64-64-64s-64 27.733333-64 64c0 21.333333 10.666667 40.533333 27.733333 53.333334l-96 275.2c-8.533333 27.733333 12.8 55.466667 40.533333 55.466666h183.466667c27.733333 0 49.066667-27.733333 40.533333-55.466666l-96-275.2zM789.333333 469.333333c-106.666667 0-192 85.333333-192 192s85.333333 192 192 192 192-85.333333 192-192-85.333333-192-192-192z m57.6 277.333334h-128c-32 0-57.6-25.6-57.6-57.6 0-32 25.6-57.6 57.6-57.6 0-38.4 32-70.4 70.4-70.4 32 0 57.6 19.2 66.133334 46.933333 34.133333 4.266667 61.866667 34.133333 61.866666 70.4 0 36.266667-32 68.266667-70.4 68.266667z" p-id="5931" fill="#ffffff"></path></svg>