<?xml version="1.0" standalone="no"?><!DOCTYPE svg PUBLIC "-//W3C//DTD SVG 1.1//EN" "http://www.w3.org/Graphics/SVG/1.1/DTD/svg11.dtd"><svg t="1777619148545" class="icon" viewBox="0 0 1024 1024" version="1.1" xmlns="http://www.w3.org/2000/svg" p-id="13367" xmlns:xlink="http://www.w3.org/1999/xlink" width="200" height="200"><path d="M810.7 64C893.1 64 960 130.9 960 213.3c0 65-41.6 120.3-99.6 140.8v8.5c0 110-89.1 199.1-199.1 199.1H362.7c-55 0-99.6 44.6-99.6 99.6v8.5c58 20.5 99.6 75.8 99.6 140.8 0 82.5-66.9 149.3-149.3 149.3S64 893.1 64 810.7c0-65 41.6-120.3 99.6-140.8V354.2c-58-20.5-99.6-75.8-99.6-140.8C64 130.9 130.9 64 213.3 64s149.3 66.9 149.3 149.3c0 65-41.6 120.3-99.6 140.8v134.7c29.3-16.9 63.3-26.6 99.6-26.6h298.7c55 0 99.6-44.6 99.6-99.6v-8.5c-58-20.5-99.6-75.8-99.6-140.8 0-82.4 66.9-149.3 149.4-149.3zM213.3 760.9c-27.5 0-49.8 22.3-49.8 49.8s22.3 49.8 49.8 49.8 49.8-22.3 49.8-49.8-22.3-49.8-49.8-49.8z m0-597.3c-27.5 0-49.8 22.3-49.8 49.8s22.3 49.8 49.8 49.8 49.8-22.3 49.8-49.8-22.3-49.8-49.8-49.8z m597.4 0c-27.5 0-49.8 22.3-49.8 49.8s22.3 49.8 49.8 49.8 49.8-22.3 49.8-49.8-22.3-49.8-49.8-49.8z" p-id="13368" fill="#ffffff"></path></svg>