<?xml version="1.0" standalone="no"?><!DOCTYPE svg PUBLIC "-//W3C//DTD SVG 1.1//EN" "http://www.w3.org/Graphics/SVG/1.1/DTD/svg11.dtd"><svg t="1779105174523" class="icon" viewBox="0 0 1024 1024" version="1.1" xmlns="http://www.w3.org/2000/svg" p-id="6516" xmlns:xlink="http://www.w3.org/1999/xlink" width="200" height="200"><path d="M239.8 561.5v262.3c0.4 32.4 13.5 45.6 49.3 42.6h16.1v22.4H98.9v-22.4h22.8c29.9 1.5 44.8-12.7 44.8-42.6V561.5H94.4c-38.9 0-57.5 15-60.5 67.3H9.3l11.2-107.6h17.9c3 4.5 6.7 7.5 11.2 9 3 3 8.2 3.7 15.7 2.2h273.5c10.5 1.5 19.4-2.2 26.9-11.2h20.2l9 107.6h-22.4c-4.5-52.3-16-67.3-62.8-67.3h-69.9z" p-id="6517" fill="#ffffff"></path><path d="M686.8 185.5v563.6c0.8 69.7 28.9 98 106 91.5h34.5v48.2H384.1v-48.2h49c64.2 3.2 96.3-27.3 96.3-91.5V185.5H374.5c-83.6 0-123.6 32.1-130.1 144.5h-53l24.1-231.2H254c6.4 9.6 14.4 16.1 24.1 19.3 6.4 6.4 17.7 8 33.7 4.8h587.7c22.5 3.2 41.7-4.8 57.8-24.1h43.3L1020 330h-48.2c-9.6-112.4-34.4-144.5-134.9-144.5H686.8z" p-id="6518" fill="#ffffff"></path></svg>