<?xml version="1.0" standalone="no"?><!DOCTYPE svg PUBLIC "-//W3C//DTD SVG 1.1//EN" "http://www.w3.org/Graphics/SVG/1.1/DTD/svg11.dtd"><svg t="1777188077042" class="icon" viewBox="0 0 1024 1024" version="1.1" xmlns="http://www.w3.org/2000/svg" p-id="9131" xmlns:xlink="http://www.w3.org/1999/xlink" width="200" height="200"><path d="M556 112h-84v800h84V112z m125 58h-75v84h75v-84z m-75 600h75v84h-75v-84z m190-600h-75v84h75v-84z m-75 600h75v84h-75v-84z m190-600h-75v84h75v-84z m-75 600h75v84h-75v-84z m75-480h-75v84h75v-84z m-75 120h75v84h-75v-84z m75 120h-75v84h75v-84z m-75 120h75v84h-75v-84zM422 170H113v684h309v-84H197V254h225v-84z" fill="#ffffff" p-id="9132"></path></svg>