<?xml version="1.0" standalone="no"?><!DOCTYPE svg PUBLIC "-//W3C//DTD SVG 1.1//EN" "http://www.w3.org/Graphics/SVG/1.1/DTD/svg11.dtd"><svg t="1779175267422" class="icon" viewBox="0 0 1024 1024" version="1.1" xmlns="http://www.w3.org/2000/svg" p-id="4726" xmlns:xlink="http://www.w3.org/1999/xlink" width="200" height="200"><path d="M533.6 960A435.52 435.52 0 0 1 112 419.36 436.96 436.96 0 0 1 414.56 106.88a22.4 22.4 0 1 1 11.84 43.2 392 392 0 0 0-272 279.68A390.24 390.24 0 1 0 628.8 147.04 22.24 22.24 0 1 1 640 104 434.72 434.72 0 0 1 533.6 960z m0 0" fill="#ffffff" p-id="4727"></path><path d="M532.8 548.16a21.92 21.92 0 0 1-22.24-22.24V320a22.24 22.24 0 1 1 44.64 0v205.76a21.92 21.92 0 0 1-22.24 22.24z m0 0" fill="#ffffff" p-id="4728"></path><path d="M534.72 754.24a228.32 228.32 0 0 1-123.52-420.48 22.08 22.08 0 0 1 23.84 37.28 183.84 183.84 0 1 0 283.52 154.72 185.76 185.76 0 0 0-84-154.72 22.56 22.56 0 0 1 24.48-37.92 228.8 228.8 0 0 1-124.32 421.12z m-148.8-456.16a12.64 12.64 0 0 1-5.28 0 22.24 22.24 0 0 1-16-26.72l36.96-147.36a22.24 22.24 0 1 1 43.2 10.4l-37.12 146.56a22.24 22.24 0 0 1-21.6 17.12z m0 0" fill="#ffffff" p-id="4729"></path><path d="M420.48 151.52a12.64 12.64 0 0 1-5.28 0L268.64 113.6a22.24 22.24 0 1 1 10.4-43.2l146.56 37.28a22.24 22.24 0 0 1-5.28 43.84z m0 0" fill="#ffffff" p-id="4730"></path></svg>