<?xml version="1.0" standalone="no"?><!DOCTYPE svg PUBLIC "-//W3C//DTD SVG 1.1//EN" "http://www.w3.org/Graphics/SVG/1.1/DTD/svg11.dtd"><svg t="1761544897634" class="icon" viewBox="0 0 1024 1024" version="1.1" xmlns="http://www.w3.org/2000/svg" p-id="6316" xmlns:xlink="http://www.w3.org/1999/xlink" width="200" height="200"><path d="M512 512m-512 0a512 512 0 1 0 1024 0 512 512 0 1 0-1024 0Z" fill="#E52B27" p-id="6317"></path><path d="M514.048 748.307692c17.604923 0 31.271385 4.962462 42.968615 16.896 10.752 10.909538 16.620308 24.812308 16.620308 41.668923 0 17.880615-5.868308 31.783385-16.620308 42.692923-11.697231 10.948923-26.387692 16.896-42.92923 16.896-16.620308 0-30.326154-5.947077-41.03877-16.896a58.210462 58.210462 0 0 1-17.565538-42.692923c0-16.856615 5.868308-30.759385 17.565538-41.668923 10.752-11.933538 24.418462-16.896 40.999385-16.896zM472.615385 673.161846L451.584 157.538462h128L551.384615 673.161846h-78.76923z" fill="#FFFFFF" p-id="6318"></path></svg>