<?xml version="1.0" standalone="no"?><!DOCTYPE svg PUBLIC "-//W3C//DTD SVG 1.1//EN" "http://www.w3.org/Graphics/SVG/1.1/DTD/svg11.dtd"><svg t="1778555287511" class="icon" viewBox="0 0 1024 1024" version="1.1" xmlns="http://www.w3.org/2000/svg" p-id="7577" xmlns:xlink="http://www.w3.org/1999/xlink" width="200" height="200"><path d="M869.936639 776.167297c0 3.435015 2.923417 6.577689 6.212262 6.577689 3.288844 0 6.285347-3.142674 6.285347-6.577689 0-3.508101-2.923417-6.577689-6.285347-6.577689-3.215759 0-6.212262 3.069588-6.212262 6.577689m-137.839126 150.555992c0 3.435015 1.388623 6.870031 3.654271 9.28185a12.205267 12.205267 0 0 0 8.770252 3.873528c3.288844 0 6.504604-1.461709 8.770252-3.873528a13.740061 13.740061 0 0 0 0-18.5637 12.205267 12.205267 0 0 0-8.770252-3.873528 12.205267 12.205267 0 0 0-8.770252 3.873528 13.666976 13.666976 0 0 0-3.654271 9.28185m-185.783171 77.470559c0 5.189066 2.046392 10.378131 5.481408 14.032403 3.435015 3.654272 8.331739 5.773749 13.155378 5.773749 4.969809 0 9.793448-2.192563 13.228463-5.846835a20.610092 20.610092 0 0 0 0-27.918635 18.344444 18.344444 0 0 0-13.155378-5.773749 18.344444 18.344444 0 0 0-13.155378 5.846834 20.610092 20.610092 0 0 0-5.554493 13.886233m-199.961744-10.305046c0 6.870031 2.704161 13.666976 7.308543 18.5637a24.410535 24.410535 0 0 0 17.540504 7.67397 24.410535 24.410535 0 0 0 17.540504-7.67397 27.407037 27.407037 0 0 0 0-37.200486 24.410535 24.410535 0 0 0-17.540504-7.67397 24.48362 24.48362 0 0 0-17.540504 7.67397 27.480123 27.480123 0 0 0-7.308543 18.636786m-177.378346-96.472772a34.350153 34.350153 0 0 0 9.062594 23.314253c5.846835 6.066091 13.886232 9.647277 21.998715 9.647277a30.622796 30.622796 0 0 0 21.92563-9.647277 34.350153 34.350153 0 0 0 0-46.55542 30.622796 30.622796 0 0 0-21.92563-9.647278 30.622796 30.622796 0 0 0-21.92563 9.647278 34.350153 34.350153 0 0 0-9.135679 23.314253M46.044554 733.55849c0 10.378131 4.019699 20.683178 10.962815 27.991721 6.870031 7.308543 16.590393 11.547498 26.310756 11.547498a36.761973 36.761973 0 0 0 26.383841-11.547498 41.220184 41.220184 0 0 0 0-55.910357 36.761973 36.761973 0 0 0-26.310756-11.547498 36.761973 36.761973 0 0 0-26.456926 11.547498c-6.870031 7.308543-10.962815 17.540504-10.962815 27.918636M0.000731 532.354293c0 12.059096 4.677468 24.118193 12.716866 32.596103 8.039398 8.550996 19.36764 13.44772 30.768967 13.44772 11.401328 0 22.656484-4.896724 30.695882-13.44772a48.090215 48.090215 0 0 0 0-65.119121 42.828064 42.828064 0 0 0-30.695882-13.520805 42.828064 42.828064 0 0 0-30.695882 13.520805 48.090215 48.090215 0 0 0-12.789951 32.523018m38.004426-199.888659c0 13.813147 5.262151 27.480123 14.470915 37.273571a48.96724 48.96724 0 0 0 35.227179 15.347941 48.96724 48.96724 0 0 0 35.081008-15.347941 54.88716 54.88716 0 0 0 0-74.547142 48.96724 48.96724 0 0 0-35.081008-15.347941 48.96724 48.96724 0 0 0-35.227179 15.347941 54.88716 54.88716 0 0 0-14.544001 37.273571m113.794019-161.153379c0 15.494112 6.066091 30.915138 16.444222 41.877953 10.305046 10.962815 24.849047 17.394333 39.53922 17.394333 14.617087 0 29.234173-6.431518 39.612304-17.394333a61.830276 61.830276 0 0 0 0-83.828992 55.106416 55.106416 0 0 0-39.612304-17.321247c-14.617087 0-29.234173 6.358433-39.53922 17.321247a61.830276 61.830276 0 0 0-16.444222 41.951039m167.146385-92.379987c0 17.248162 6.72386 34.350153 18.198273 46.55542a61.172507 61.172507 0 0 0 43.924345 19.294555 61.172507 61.172507 0 0 0 43.997431-19.294555 68.627221 68.627221 0 0 0 0-93.037756 61.172507 61.172507 0 0 0-43.997431-19.294554 61.172507 61.172507 0 0 0-43.924345 19.294554 68.700307 68.700307 0 0 0-18.271358 46.482336M506.628952 73.231604c0 19.002213 7.308543 37.785169 20.025409 51.159803 12.64378 13.44772 30.476626 21.194776 48.382556 21.194775a67.311684 67.311684 0 0 0 48.382557-21.194775 75.570338 75.570338 0 0 0 0-102.319606A67.311684 67.311684 0 0 0 574.963832 0.80394a67.311684 67.311684 0 0 0-48.382557 21.194775 75.570338 75.570338 0 0 0-20.025408 51.159803m171.823852 81.928771c0 20.683178 8.039398 41.220184 21.92563 55.83727 13.740061 14.617087 33.180787 23.094997 52.621512 23.094997 19.586896 0 38.954536-8.47791 52.767682-23.094997a82.367283 82.367283 0 0 0 0-111.674541 73.377775 73.377775 0 0 0-52.694597-23.094997c-19.513811 0-38.954536 8.47791-52.767682 23.094997-13.813147 14.617087-21.852544 35.154093-21.852545 55.837271m122.125759 153.77175c0 22.437228 8.770252 44.655199 23.67968 60.514739 14.982514 15.859539 35.958033 25.068303 57.152808 25.068303 21.194776 0 42.170295-9.208765 57.152809-25.068303a89.310399 89.310399 0 0 0 0-121.029477 79.516951 79.516951 0 0 0-57.152809-25.068304c-21.194776 0-42.170295 9.208765-57.152808 25.068304a89.237314 89.237314 0 0 0-23.67968 60.514738m48.601813 199.157805c0 24.118193 9.354935 48.1633 25.506816 65.192206 16.078795 17.101991 38.735279 27.04161 61.537934 27.04161 22.802655 0 45.459139-9.939619 61.537935-27.04161a96.18043 96.18043 0 0 0 0-130.311327c-16.078795-17.101991-38.735279-27.04161-61.537935-27.04161-22.802655 0-45.459139 9.939619-61.537934 27.04161-16.151881 17.028906-25.579902 41.000928-25.579902 65.119121" fill="#e6e6e6" p-id="7578"></path></svg>