<?xml version="1.0" standalone="no"?><!DOCTYPE svg PUBLIC "-//W3C//DTD SVG 1.1//EN" "http://www.w3.org/Graphics/SVG/1.1/DTD/svg11.dtd"><svg t="1779766093429" class="icon" viewBox="0 0 1024 1024" version="1.1" xmlns="http://www.w3.org/2000/svg" p-id="17587" xmlns:xlink="http://www.w3.org/1999/xlink" width="200" height="200"><path d="M486.4 85.76a42.24 42.24 0 1 1 0 84.48H307.2A136.96 136.96 0 0 0 170.24 307.2v409.6A136.96 136.96 0 0 0 307.2 853.76h409.6A136.96 136.96 0 0 0 853.76 716.8v-179.2a42.24 42.24 0 0 1 84.48 0V716.8A221.44 221.44 0 0 1 716.8 938.24H307.2A221.44 221.44 0 0 1 85.76 716.8V307.2A221.44 221.44 0 0 1 307.2 85.76h179.2z m444.7232 7.9872a144.64 144.64 0 0 1 0 204.544l-264.192 264.192a144.64 144.64 0 0 1-86.3232 41.472l-127.232 14.1824a42.24 42.24 0 0 1-46.592-46.6432l14.08-127.232c3.6352-32.6144 18.2784-63.0784 41.472-86.272l264.2432-264.2432a144.64 144.64 0 0 1 204.544 0z m-144.7936 59.7504l-264.192 264.192a60.16 60.16 0 0 0-17.3056 35.8912l-8.2944 74.752 74.752-8.2944c11.264-1.28 22.016-5.6832 30.8224-12.7488l5.0688-4.5056 264.192-264.192a60.16 60.16 0 1 0-85.0432-85.0944z" p-id="17588" fill="#ffffff"></path></svg>