<?xml version="1.0" standalone="no"?><!DOCTYPE svg PUBLIC "-//W3C//DTD SVG 1.1//EN" "http://www.w3.org/Graphics/SVG/1.1/DTD/svg11.dtd"><svg t="1777616966641" class="icon" viewBox="0 0 1024 1024" version="1.1" xmlns="http://www.w3.org/2000/svg" p-id="5619" xmlns:xlink="http://www.w3.org/1999/xlink" width="200" height="200"><path d="M190.5 764.9q0 26.6 18.9 45.1t45.6 18.4h255v128H190.5q-26.6 0-49.7-10.2t-40.4-27.6-27.6-40.4-10.2-49.7v-640q0-26.6 10.2-49.7t27.6-40.4 40.4-27.6 49.7-10.2H895q26.6 0 49.7 10.2t40.4 27.6 27.6 40.4 10.2 49.7v254l-128 3.1v-64.5q0-26.6-18.9-45.6t-45.6-18.9H254.9q-26.6 0-45.6 18.9t-18.9 45.6v384z m609.2-257q46.1 0 87 17.4t71.7 48.1 48.6 71.7 17.9 88.1-17.9 88.1-48.6 71.7-71.7 48.1-87 17.4q-47.1 0-88.1-17.4T639.9 893t-48.6-71.7-17.9-88.1 17.9-88.1 48.6-71.7 71.7-48.1 88.1-17.4z m158.8 257v-64.5h-128v-128H767v128H639v64.5h128v128h63.5v-128h128z" p-id="5620" fill="#ffffff"></path></svg>