<?xml version="1.0" standalone="no"?><!DOCTYPE svg PUBLIC "-//W3C//DTD SVG 1.1//EN" "http://www.w3.org/Graphics/SVG/1.1/DTD/svg11.dtd"><svg t="1772164647951" class="icon" viewBox="0 0 1024 1024" version="1.1" xmlns="http://www.w3.org/2000/svg" p-id="11017" xmlns:xlink="http://www.w3.org/1999/xlink" width="200" height="200"><path d="M887.466667 521.557333V312.763733a1.570133 1.570133 0 0 0-0.9216-1.467733L512.853333 102.6048A1.706667 1.706667 0 0 0 512 102.4v87.381333c0 169.5744 142.165333 331.639467 317.5424 331.639467a236.202667 236.202667 0 0 0-10.581333 0.2048h68.471466v-0.034133z" fill="#988EFF" p-id="11018"></path><path d="M136.533333 521.557333v216.302934c0 0.648533 0.341333 1.2288 0.887467 1.536l373.691733 216.064A1.706667 1.706667 0 0 0 512 955.733333v-90.5216c0-175.616-142.1312-343.4496-317.5424-343.4496 3.549867 0 7.031467-0.034133 10.581333-0.2048H136.533333v0.068267z" fill="#6253FF" p-id="11019"></path><path d="M136.533333 521.557333V312.763733c0-0.648533 0.341333-1.2288 0.887467-1.467733l373.691733-208.657067A1.706667 1.706667 0 0 1 512 102.4v87.381333c0 169.5744-142.1312 331.639467-317.5424 331.639467 3.549867 0 7.031467 0.034133 10.581333 0.2048H136.533333v-0.034133z" fill="#988EFF" p-id="11020"></path><path d="M887.466667 521.557333v216.302934a1.706667 1.706667 0 0 1-0.9216 1.536l-373.691734 216.064A1.706667 1.706667 0 0 1 512 955.733333v-90.5216c0-175.616 142.165333-343.4496 317.5424-343.4496-3.549867 0-7.031467-0.034133-10.581333-0.2048h68.471466v0.068267z" fill="#6253FF" p-id="11021"></path><path d="M512.068267 189.8496c0 169.540267 142.165333 331.605333 317.5424 331.605333l-10.513067 0.136534c3.4816 0.170667 7.031467 0.2048 10.513067 0.2048-175.377067 0-317.5424 167.8336-317.5424 343.4496 0-174.08-139.6736-340.445867-312.866134-343.3472v-0.2048l5.905067-0.1024-5.973333-0.1024v-0.2048c173.2608-2.798933 312.9344-163.396267 312.9344-331.434667z" fill="#F7F8FA" p-id="11022"></path></svg>