<?xml version="1.0" standalone="no"?><!DOCTYPE svg PUBLIC "-//W3C//DTD SVG 1.1//EN" "http://www.w3.org/Graphics/SVG/1.1/DTD/svg11.dtd"><svg t="1761571781422" class="icon" viewBox="0 0 1024 1024" version="1.1" xmlns="http://www.w3.org/2000/svg" p-id="9768" xmlns:xlink="http://www.w3.org/1999/xlink" width="200" height="200"><path d="M549.98 62c121.815 0 221.49 40.05 288.18 115.875 58.95 67.05 90.18 158.04 90.18 263.25a377.1 377.1 0 0 1-66.51 214.335c-34.65 50.535-54.27 107.235-57.06 164.655l-0.36 14.4V962H366.335v-92.52l-28.62 2.205a150.255 150.255 0 0 1-115.65-39.33 155.97 155.97 0 0 1-50.04-104.715l-0.315-10.08v-80.55l-56.25-28.215-1.755-0.27-1.35-1.35a56.79 56.79 0 0 1-24.03-69.39l2.655-5.85 82.035-142.965c12.33-95.265 44.82-171 96.75-225.18C334.61 96.29 428.885 62 549.98 62h0.045z m2.475 128.07a74.43 74.43 0 0 0-70.56 98.1L394.37 362.51a99.27 99.27 0 1 0 52.29 120.15l176.49 24.705a86.85 86.85 0 1 0 4.59-49.5l-178.245-24.975a98.775 98.775 0 0 0-16.425-38.07l79.425-67.5a74.43 74.43 0 1 0 39.96-137.295z" fill="#ffffff" p-id="9769"></path></svg>