<?xml version="1.0" standalone="no"?><!DOCTYPE svg PUBLIC "-//W3C//DTD SVG 1.1//EN" "http://www.w3.org/Graphics/SVG/1.1/DTD/svg11.dtd"><svg t="1779014694987" class="icon" viewBox="0 0 1024 1024" version="1.1" xmlns="http://www.w3.org/2000/svg" p-id="5847" xmlns:xlink="http://www.w3.org/1999/xlink" width="200" height="200"><path d="M572.131556 143.872l350.435555 295.025778-55.011555 65.308444-36.522667-30.776889v339.456a128 128 0 0 1-128 128h-426.666667a128 128 0 0 1-128-128V473.315556l-36.522666 30.833777L56.888889 438.897778l350.378667-295.025778a128 128 0 0 1 164.864 0z m-61.098667 370.346667h-42.666667a128 128 0 0 0-128 128v170.666666c0 23.552 19.114667 42.666667 42.666667 42.666667h213.333333a42.666667 42.666667 0 0 0 42.666667-42.666667v-170.666666a128 128 0 0 0-128-128z" p-id="5848" fill="#ffffff"></path></svg>