<?xml version="1.0" standalone="no"?><!DOCTYPE svg PUBLIC "-//W3C//DTD SVG 1.1//EN" "http://www.w3.org/Graphics/SVG/1.1/DTD/svg11.dtd"><svg t="1777424547277" class="icon" viewBox="0 0 1024 1024" version="1.1" xmlns="http://www.w3.org/2000/svg" p-id="5774" xmlns:xlink="http://www.w3.org/1999/xlink" width="200" height="200"><path d="M653.165714 795.648h326.509715a45.348571 45.348571 0 0 0 39.643428-27.428571c4.681143-15.945143 0-34.304-13.970286-43.446858l-121.270857-91.428571c-18.724571-13.750857-44.324571-11.410286-58.368 6.875429-13.970286 18.285714-11.702857 43.446857 7.021715 57.124571l25.6 20.626286H650.825143a41.398857 41.398857 0 0 0-41.984 41.106285c0 22.893714 23.405714 36.571429 44.324571 36.571429z m326.509715 57.197714H653.165714a45.348571 45.348571 0 0 0-39.643428 27.428572c-4.681143 16.018286 0 34.304 14.043428 43.446857l121.270857 91.428571c18.651429 13.750857 44.324571 11.483429 58.294858-6.802285 14.043429-18.285714 11.702857-43.446857-7.021715-57.197715l-25.6-20.553143h207.579429c23.332571 0 41.984-18.285714 41.984-41.179428 0-22.820571-20.992-36.571429-44.324572-36.571429z m-195.949715-523.629714c-11.702857-20.48-39.643429-27.428571-60.635428-15.945143L473.526857 443.538286 223.963429 313.270857a46.153143 46.153143 0 0 0-60.708572 15.945143 41.106286 41.106286 0 0 0 16.384 57.197714L431.542857 519.021714v283.501715c0 16.091429 9.289143 29.769143 23.332572 36.571428a50.322286 50.322286 0 0 0 44.324571 0 40.667429 40.667429 0 0 0 23.332571-36.571428V516.754286l244.882286-128a43.739429 43.739429 0 0 0 16.310857-59.538286z m-648.411428-47.542857l7.314285-7.314286-3.657142 7.314286h-3.657143z" p-id="5775" fill="#ffffff"></path><path d="M450.194286 903.168l-13.970286-6.875429L109.641143 727.04l-2.340572-2.340571c-2.340571-2.194286-4.681143-4.534857-4.681142-6.802286-2.340571-2.340571-2.340571-4.608-2.340572-6.875429V304.128c0-6.875429 4.681143-13.750857 11.702857-18.285714L468.845714 93.696c4.681143-2.340571 7.021714-2.340571 11.702857-2.340571 4.608 0 9.289143 0 11.629715 2.340571l359.204571 192c7.021714 4.608 11.702857 11.483429 11.702857 18.285714v153.234286c0 27.428571 20.992 47.981714 49.005715 47.981714 27.940571 0 48.932571-20.48 48.932571-47.981714V304.128c0-36.571429-20.992-70.948571-53.686857-91.428571l-6.948572-4.608L538.843429 16.018286C520.192 6.875429 499.2 0 478.134857 0c-20.918857 0-41.910857 4.608-60.635428 16.018286L60.708571 208.091429C23.405714 228.644571 0 265.216 0 304.128v406.966857c0 41.179429 23.332571 77.750857 60.708571 96.036572l359.131429 185.197714a47.469714 47.469714 0 0 0 58.368-45.714286c0-18.285714-11.702857-34.377143-28.013714-43.446857z" p-id="5776" fill="#ffffff"></path></svg>