<?xml version="1.0" standalone="no"?><!DOCTYPE svg PUBLIC "-//W3C//DTD SVG 1.1//EN" "http://www.w3.org/Graphics/SVG/1.1/DTD/svg11.dtd"><svg t="1769232621383" class="icon" viewBox="0 0 1024 1024" version="1.1" xmlns="http://www.w3.org/2000/svg" p-id="4824" xmlns:xlink="http://www.w3.org/1999/xlink" width="200" height="200"><path d="M841.49589333 230.19178667c-20.09998222 0-36.38613333 16.29752889-36.38613333 36.38613333 0 20.08632889 16.28615111 36.38499555 36.38613333 36.38499555 33.43587555 0 60.64241778 27.19402667 60.64241778 60.64241778v270.87872c0 33.44725333-27.20654222 60.64241778-60.64355556 60.64241778-20.09884445 0-36.38499555 16.29752889-36.38499555 36.38613334s16.28615111 36.38385778 36.38613333 36.38385777c73.56416 0 133.41354667-59.86076445 133.41354667-133.41354667V363.60647111c0-73.55392-59.84938667-133.41582222-133.41354667-133.41582222zM594.88711111 731.51260445c0-20.08746667-16.28728889-36.38613333-36.38613333-36.38613334H182.50296889c-33.43587555 0-60.64241778-27.19288889-60.64241778-60.64128V363.60647111c0-33.44839111 27.20654222-60.64355555 60.64355556-60.64355556h378.0096c20.09884445 0 36.38613333-16.29752889 36.38613333-36.38499555s-16.28728889-36.38613333-36.38613333-36.38613333H182.50296889c-73.56416 0-133.41354667 59.86190222-133.41354667 133.41582222v270.87872c0 73.55278222 59.84938667 133.41354667 133.41354667 133.41354666H558.50097778c20.09884445-0.00227555 36.38613333-16.29866667 36.38613333-36.38613333z" fill="#ffffff" p-id="4825"></path><path d="M851.59936 936.4992H742.71857778v-848.9984h133.13592889c20.09998222 0 36.38613333-16.29866667 36.38613333-36.38613333s-16.28615111-36.38613333-36.38613333-36.38613334H560.51484445c-20.09884445 0-36.38613333 16.29866667-36.38613334 36.38613334s16.28728889 36.38613333 36.38613334 36.38613333h109.43601777v848.9984H536.25742222c-20.09998222 0-36.38613333 16.29752889-36.38613333 36.38499555s16.28615111 36.38613333 36.38613333 36.38613334h315.34193778c20.09884445 0 36.38613333-16.29866667 36.38613333-36.38613334s-16.28728889-36.38499555-36.38613333-36.38499555zM220.91434667 475.61386667c-20.09884445 0-36.38613333 16.29866667-36.38613334 36.38613333s16.28728889 36.38613333 36.38613334 36.38613333h242.57194666c20.09884445 0 36.38613333-16.29866667 36.38613334-36.38613333s-16.28728889-36.38613333-36.38613334-36.38613333H220.91434667z" fill="#ffffff" p-id="4826"></path></svg>