<?xml version="1.0" standalone="no"?><!DOCTYPE svg PUBLIC "-//W3C//DTD SVG 1.1//EN" "http://www.w3.org/Graphics/SVG/1.1/DTD/svg11.dtd"><svg t="1772042144621" class="icon" viewBox="0 0 1024 1024" version="1.1" xmlns="http://www.w3.org/2000/svg" p-id="6268" xmlns:xlink="http://www.w3.org/1999/xlink" width="200" height="200"><path d="M557.44 57.6c132.736 0 239.36 49.6 316.544 147.712 30.784 39.04 54.336 83.264 70.464 132.352 12.16 36.928 19.328 73.472 21.312 109.568l0.64 21.632h-76.8c0-34.752-6.016-70.4-18.112-107.136a352 352 0 0 0-57.856-108.928c-62.272-79.232-146.56-118.4-256.128-118.4-151.936 0-239.104 59.904-271.36 184.32l-3.2 13.632-3.84 17.664-29.184 15.04-35.456 18.816-37.824 21.056-14.592 8.576-16.192 10.176-6.784 4.8a21.44 21.44 0 0 0-3.456 3.136c-1.088 1.28-1.408 1.408-1.152 2.048l0.64 1.536a11.712 11.712 0 0 0 3.712 4.096l7.36 4.928 8.896 5.12c13.824 7.68 23.744 14.016 31.104 20.288l4.992 4.736 17.216 18.048-11.584 28.032-9.536 20.736-4.224 8.96c-4.096 8.576-7.808 16.576-11.2 24.064l-8.96 20.736-6.656 17.472a192.768 192.768 0 0 0-4.416 14.016c-8.064 30.208-5.696 51.52 5.248 66.816 7.36 10.368 18.56 17.984 34.816 23.168 3.008 0.96 6.848 1.92 11.392 2.944l16 3.008 20.544 3.008c44.608 5.824 75.52 15.04 95.168 30.72 37.888 30.08 65.6 75.648 83.392 133.824l-0.256-0.256 22.08 73.408c-38.912 11.904-80.256-8.832-94.656-48.896-14.08-46.08-33.856-78.464-58.368-97.984-5.12-4.096-21.376-9.216-47.168-13.184l-10.112-1.472c-26.88-3.52-47.104-7.36-61.312-11.968-31.36-9.92-56.448-27.136-73.984-51.584-25.6-35.84-30.592-80.64-16.96-131.456 2.944-10.944 7.424-23.808 13.44-38.72l10.176-23.872 13.568-29.248-5.632-3.136-9.472-5.888a143.68 143.68 0 0 1-4.032-2.752l-5.184-3.84a87.232 87.232 0 0 1-25.856-33.472 77.44 77.44 0 0 1 21.632-92.544l10.88-8.512c4.096-3.008 8.704-6.144 13.824-9.472l16.832-10.56 19.968-11.648 23.296-12.928 41.152-21.952 3.648-13.056C259.072 139.776 369.728 62.848 539.712 57.856L557.44 57.6zM736 512a224 224 0 1 1 0 448 224 224 0 0 1 0-448z m0 76.8a147.2 147.2 0 1 0 0 294.4 147.2 147.2 0 0 0 0-294.4z m38.4 46.976v84.672l64 64-54.4 54.272-86.4-86.4V635.712h76.8zM525.824 218.048c20.736-1.472 39.296 0.512 55.552 6.4l7.424 3.136 8.64 0.256c11.2 0.512 21.76 1.6 31.936 3.2l14.72 2.88c17.984 4.032 33.088 9.856 44.8 18.24l5.568 4.416 4.928 0.32c26.304 2.688 49.024 16.064 66.816 38.336l6.464 8.704c17.472 25.792 24.128 54.528 19.2 84.16-5.888 35.392-30.4 59.84-67.2 70.656a148.48 148.48 0 0 1-36.48 5.632h-12.352l-3.328 2.176c-16.128 9.344-35.84 15.168-58.88 18.048l-14.272 1.344c-42.112 2.944-75.968-9.344-96-39.36a76.8 76.8 0 0 1-8.064-15.68l-0.64-1.984-13.76-3.712a178.88 178.88 0 0 1-33.792-14.016l-9.536-5.76c-40.512-26.88-50.56-71.168-31.36-121.728l0.704-1.6c16.064-36.224 53.12-55.808 106.24-62.72z m32.448 80.128c-5.376-3.456-16.896-5.056-35.136-2.688-29.376 3.84-43.072 11.136-45.632 16.832l-2.112 6.016c-4.288 13.44-2.368 18.432 4.672 23.168 10.752 7.104 28.864 13.12 54.208 17.088l33.92 5.312-1.472 34.304c-0.128 3.84 0.192 5.376 0.448 5.76 2.752 4.032 9.792 6.592 26.88 5.376 23.296-1.6 37.888-6.4 44.352-12.352l12.544-11.392 16.832 1.472c14.72 1.344 26.496 0.512 35.2-2.048 10.176-2.944 12.352-5.12 13.12-9.536a37.12 37.12 0 0 0-7.04-28.48c-7.04-10.432-12.8-13.824-19.712-13.824-6.464 0-12.352-0.256-17.6-0.832l-21.184-2.368-9.216-19.2 0.256 0.896c0 0.448-0.576 0.512-1.6 0.384L627.2 308.8a213.376 213.376 0 0 0-46.72-4.608H567.68z" p-id="6269" fill="#ffffff"></path></svg>